<?xml version="1.0" standalone="no"?>
<!DOCTYPE svg PUBLIC "-//W3C//DTD SVG 20010904//EN"
 "http://www.w3.org/TR/2001/REC-SVG-20010904/DTD/svg10.dtd">
<svg version="1.0" xmlns="http://www.w3.org/2000/svg"
 width="979.000000pt" height="979.000000pt" viewBox="0 0 979.000000 979.000000"
 preserveAspectRatio="xMidYMid meet">
<metadata>
Created by potrace 1.11, written by Peter Selinger 2001-2013
</metadata>
<g transform="translate(0.000000,979.000000) scale(0.100000,-0.100000)"
fill="#000000" stroke="none">
<path d="M6938 9785 c-2 -2 -25 -5 -53 -8 -322 -37 -560 -360 -499 -677 29
-151 159 -373 333 -565 71 -79 336 -340 375 -370 20 -15 36 -31 36 -35 0 -4
-17 -10 -37 -13 -59 -10 -161 -46 -244 -86 -73 -36 -258 -152 -289 -182 -8 -8
-38 -32 -65 -53 -69 -55 -133 -114 -246 -229 l-97 -97 -28 82 c-140 427 -363
763 -662 998 -43 33 -82 64 -88 69 -42 34 -197 123 -289 167 -207 98 -415 160
-665 198 -172 27 -603 28 -735 2 -11 -2 -42 -7 -70 -10 -82 -11 -244 -52 -340
-86 -393 -139 -700 -438 -878 -855 -46 -108 -121 -333 -116 -347 0 -2 -4 -16
-10 -31 -6 -15 -13 -42 -16 -60 -4 -18 -10 -50 -15 -72 -23 -102 -58 -328 -65
-418 -2 -23 -7 -78 -10 -122 -4 -44 -9 -109 -11 -145 -4 -86 -4 -653 1 -710 2
-25 6 -94 9 -155 3 -60 8 -126 10 -145 3 -19 8 -71 11 -115 3 -44 8 -91 10
-105 2 -14 6 -52 10 -85 3 -33 8 -73 10 -90 7 -53 17 -129 20 -160 2 -16 6
-46 9 -65 3 -19 15 -93 26 -165 11 -71 22 -141 25 -155 3 -14 8 -43 11 -65 3
-22 10 -56 14 -75 5 -19 12 -51 15 -70 5 -33 10 -58 19 -105 32 -151 51 -237
85 -379 23 -92 41 -172 41 -176 0 -4 -157 -7 -348 -7 -191 0 -374 -3 -407 -7
-185 -22 -333 -106 -400 -228 -26 -46 -30 -63 -29 -129 1 -68 4 -82 33 -130
46 -73 92 -113 186 -158 77 -37 109 -47 185 -57 82 -11 106 -49 129 -204 6
-36 12 -74 14 -85 3 -11 8 -42 11 -70 4 -27 10 -66 12 -85 3 -19 7 -46 9 -60
3 -14 9 -59 15 -100 6 -41 12 -86 14 -100 2 -14 7 -47 11 -73 4 -27 8 -56 10
-65 1 -10 6 -39 9 -67 4 -27 8 -61 11 -75 4 -26 10 -63 21 -145 3 -27 8 -52 9
-55 2 -3 6 -37 10 -75 4 -39 9 -72 10 -75 2 -3 8 -42 14 -86 7 -44 13 -89 15
-100 2 -10 7 -46 11 -79 12 -88 11 -83 24 -170 7 -44 14 -93 17 -110 2 -16 6
-41 9 -55 2 -14 7 -45 10 -70 3 -25 7 -54 9 -66 2 -12 7 -45 11 -75 3 -30 8
-61 10 -69 2 -8 7 -39 10 -69 4 -30 8 -61 10 -70 1 -9 6 -36 9 -61 3 -25 8
-54 10 -65 2 -11 7 -42 11 -70 11 -87 67 -469 86 -595 13 -81 27 -101 99 -137
33 -16 147 -17 1785 -19 1936 -2 1825 -6 1884 61 17 20 31 39 32 43 1 11 4 29
74 407 35 193 67 366 70 385 3 19 14 80 25 135 10 55 21 117 24 138 3 21 13
71 21 110 8 40 26 137 40 217 14 80 27 156 30 170 3 14 14 72 24 130 11 58 49
265 84 460 36 195 68 369 70 385 3 17 12 66 21 110 8 44 18 94 21 110 28 162
66 356 74 377 13 35 32 44 121 57 450 63 578 461 208 646 -127 63 -174 68
-630 69 -225 1 -408 3 -408 5 0 2 18 71 39 155 32 122 77 308 96 396 10 46 45
219 49 240 2 14 7 36 10 50 3 14 8 36 10 50 2 14 9 52 15 85 6 33 13 78 16
100 11 69 15 99 20 125 2 14 7 43 10 65 3 22 7 51 10 65 2 14 7 46 10 73 3 26
7 68 10 95 3 26 8 62 11 81 2 18 7 63 10 100 3 36 7 82 9 101 2 19 7 82 10
140 4 58 10 108 13 111 4 3 34 16 67 29 329 128 634 339 955 660 176 175 260
274 347 407 120 183 175 344 169 486 -7 137 -44 211 -157 317 l-70 65 83 70
c102 86 421 402 474 470 21 27 49 61 62 75 41 44 162 230 203 311 21 44 39 80
38 81 0 2 2 10 5 18 70 203 29 407 -112 549 -66 67 -98 90 -181 131 -78 39
-177 62 -268 61 -166 -1 -278 -65 -405 -232 l-52 -68 -35 52 c-77 114 -201
206 -317 237 -38 9 -140 20 -146 15z"/>
</g>
</svg>
